<svg xmlns="http://www.w3.org/2000/svg" viewBox="0 0 293.85 293.85"><defs><style>.cls-1{fill:#2a3539;}.cls-2{fill:#fff;}.cls-3{fill:#3bb14a;}</style></defs><title>Asset 18</title><g id="Layer_2" data-name="Layer 2"><g id="Layer_1-2" data-name="Layer 1"><rect class="cls-1" width="293.85" height="293.85" rx="12" ry="12"/><path class="cls-2" d="M73,65V83.15c5.45.33,13.87,1.81,24.93,8.42L87,112.7c-3.64-2.8-10.41-7.1-18.5-7.1-3.8,0-7.59.83-9.9,3A7.07,7.07,0,0,0,56.15,114a7.64,7.64,0,0,0,2.31,5.45,25.47,25.47,0,0,0,7.6,4.13l8.58,3c6,2,12.88,4.3,19.16,10.41,6.44,6.27,8.25,12.71,8.25,20.14,0,13.38-5.61,21.14-9.24,24.94C88,187,80.26,191,73,192.79v18.66H56.48V193.61a52.32,52.32,0,0,1-18.66-4,66.88,66.88,0,0,1-16-9.41l11.89-22.13a51.87,51.87,0,0,0,11.39,8.42c4.13,2,10.24,3.8,15,3.8,4.46,0,8.26-1.32,10.73-3.8a9.86,9.86,0,0,0,3-6.93,7.78,7.78,0,0,0-3.31-6.28,29.63,29.63,0,0,0-7.43-3.3l-9.74-3.3c-10.57-3.63-15.69-7.6-18.16-10.24-5.45-5.61-7.1-11.72-7.1-19.15,0-10.41,3.46-18,8.25-23.28a36.57,36.57,0,0,1,20.15-10.9V65Z"/><rect class="cls-3" x="125.68" y="200.03" width="125.68" height="19.47" rx="1.43" ry="1.43"/></g></g></svg>