<?xml version="1.0" encoding="utf-8"?>
<!-- Generator: Adobe Illustrator 22.0.1, SVG Export Plug-In . SVG Version: 6.00 Build 0)  -->
<svg version="1.1" id="Layer_1" xmlns="http://www.w3.org/2000/svg" xmlns:xlink="http://www.w3.org/1999/xlink" x="0px" y="0px"
	 viewBox="0 0 233.8 360" style="enable-background:new 0 0 233.8 360;" xml:space="preserve">
<style type="text/css">
	.st0{fill:#D7523C;}
</style>
<title>Asset 12</title>
<g id="Layer_2_1_">
	<g id="Layer_1-2">
		<path class="st0" d="M50.9,279.1v-80.3c0-16-6-28.2-21.1-33.5c15.1-5.3,21.1-17.5,21.1-33.5V51.4c0-17.9,13.8-30.5,30.3-30.5h28V0
			h-28C52.3,0,23.8,19.8,23.8,51.4v78.1c0,14.1-7.8,26.3-23.8,26.3v19c16,0,23.8,12.2,23.8,26.3v78.4c0,31.2,28.4,51,57.3,51h28
			v-20.9h-28c-16.6,0.1-30.1-13.2-30.3-29.7C50.9,279.6,50.9,279.4,50.9,279.1z"/>
		<path class="st0" d="M210,279.5v-78.4c0-14.1,7.8-26.3,23.8-26.3v-19c-16,0-23.8-12.2-23.8-26.3V51.4C210,19.8,182,0,152.6,0h-28
			v20.9h28c16.5,0,30.3,12.6,30.3,30.5v80.3c0,16,6,28.2,21.1,33.5c-15.1,5.3-21.1,17.5-21.1,33.5v80.3c0,5.4-1.3,10.7-4,15.4
			l16.3,19.6C204.7,305.1,210.1,292.6,210,279.5z"/>
		<path class="st0" d="M124.7,309.6v21h28c1.9,0,3.8-0.1,5.7-0.3l-17.2-20.7H124.7z"/>
		<polygon class="st0" points="224.3,360 192.2,360 166.4,329 150.2,309.6 90.2,237.4 122.3,237.4 173.3,298.7 174.6,300.2 
			189.9,318.6 		"/>
	</g>
</g>
</svg>
