<svg xmlns="http://www.w3.org/2000/svg" viewBox="0 0 94 74.28"><defs><style>.cls-1{fill:#c44741;}</style></defs><title>Asset 26</title><g id="Layer_2" data-name="Layer 2"><g id="Layer_1-2" data-name="Layer 1"><path class="cls-1" d="M92.17.65a4,4,0,0,0-5.53,1.17L47,62.93,7.36,1.82A4,4,0,0,0,.64,6.18l43,66.27,0,.06,0,0a4.4,4.4,0,0,0,.43.52.23.23,0,0,1,.07.07,3.66,3.66,0,0,0,.58.46l0,0,.07,0,.38.21.15.07.34.12.19.06.34.08.18,0a4.19,4.19,0,0,0,.5,0H47a4,4,0,0,0,.49,0l.19,0,.33-.08a1.06,1.06,0,0,0,.19-.06,2,2,0,0,0,.34-.12l.16-.07.38-.21.06,0,0,0a4.18,4.18,0,0,0,.58-.46l.06-.07a3.67,3.67,0,0,0,.44-.52l0,0a.21.21,0,0,1,0-.06l43-66.27A4,4,0,0,0,92.17.65Z"/></g></g></svg>