<svg xmlns="http://www.w3.org/2000/svg" viewBox="0 0 725.43 203.27"><defs><style>.cls-1,.cls-2,.cls-4{fill:#50545b;}.cls-2,.cls-4{font-size:145px;}.cls-2{font-family:FuturaPT-Light, Futura PT;}.cls-3{letter-spacing:-0.02em;}.cls-4{font-family:FuturaPT-Book, Futura PT;}</style></defs><title>Asset 15</title><g id="Layer_2" data-name="Layer 2"><g id="Layer_1-2" data-name="Layer 1"><path class="cls-1" d="M417.73,157.6V112.23c0-9-3.37-15.91-11.91-18.92,8.54-3,11.91-9.89,11.91-18.92V29a16.83,16.83,0,0,1,17.08-17.2H450.6V0H434.81c-16.31,0-32.35,11.18-32.35,29V73.1c0,8-4.4,14.84-13.46,14.84V98.69c9.06,0,13.46,6.88,13.46,14.83v44.29c0,17.63,16,28.81,32.35,28.81H450.6V174.8H434.81A17,17,0,0,1,417.73,157.6Z"/><path class="cls-1" d="M507.54,157.81V113.52c0-8,4.4-14.83,13.46-14.83V87.94c-9.06,0-13.46-6.88-13.46-14.84V29c0-17.85-15.79-29-32.35-29H459.4V11.83h15.79A16.83,16.83,0,0,1,492.27,29V74.39c0,9,3.36,15.91,11.91,18.92-8.55,3-11.91,9.89-11.91,18.92V157.6a17.27,17.27,0,0,1-2.27,8.66l9.22,11.08A26.63,26.63,0,0,0,507.54,157.81Z"/><path class="cls-1" d="M459.4,174.8v11.82h15.79c1.08,0,2.16-.05,3.23-.14L468.7,174.8Z"/><polygon class="cls-1" points="515.65 203.27 497.51 203.27 482.97 185.79 473.83 174.79 439.94 134.05 458.08 134.05 486.87 168.66 487.58 169.52 496.21 179.89 515.65 203.27"/><text class="cls-2" transform="translate(0 139.98)">nat<tspan class="cls-3" x="167.03" y="0">h</tspan><tspan x="228.08" y="0">an</tspan></text><text class="cls-4" transform="translate(523.6 143.33)">uirk</text></g></g></svg>