<svg xmlns="http://www.w3.org/2000/svg" viewBox="0 0 305.84 31.41"><defs><style>.cls-1{fill:#545454;}</style></defs><title>Asset 20</title><g id="Layer_2" data-name="Layer 2"><g id="Layer_1-2" data-name="Layer 1"><path class="cls-1" d="M1.42,2.79V30H0V.49H1.42l19.93,27V.49h1.42V30H21.35Z"/><path class="cls-1" d="M49,22.1H32.52L29.24,30H27.6L39.91.49H41.6L53.91,30H52.27ZM33.05,20.78H48.46L40.75,2.13Z"/><path class="cls-1" d="M63.39,1.82h-10V.49H74.82V1.82h-10V30H63.39Z"/><path class="cls-1" d="M102,15.5H81.82V30H80.4V.49h1.42V14.17H102V.49h1.41V30H102Z"/><path class="cls-1" d="M129.62,22.1H113.14L109.86,30h-1.64L120.54.49h1.68L134.54,30H132.9Zm-16-1.32h15.42L121.38,2.13Z"/><path class="cls-1" d="M140.78,2.79V30h-1.41V.49h1.41l19.94,27V.49h1.41V30h-1.41Z"/><path class="cls-1" d="M205.1,26.18l2.79,3-2.56,2.22-2.84-3.06a14.87,14.87,0,0,1-8,2.21c-8.77,0-14.66-6.55-14.66-15.28S185.7,0,194.47,0s14.66,6.56,14.66,15.28A15.73,15.73,0,0,1,205.1,26.18Zm-5-.4-4.21-4.56,2.57-2.17,4.16,4.47a12.77,12.77,0,0,0,2.71-8.24c0-6.91-4.26-12-10.86-12s-10.85,5.09-10.85,12,4.21,12,10.85,12A10.63,10.63,0,0,0,200.1,25.78Z"/><path class="cls-1" d="M214.9.49h3.67v18c0,5.41,2.93,8.82,8.37,8.82s8.38-3.41,8.38-8.82V.49H239v18c0,7.35-4,12-12.05,12s-12-4.73-12-12Z"/><path class="cls-1" d="M245.91.49h3.67V30h-3.67Z"/><path class="cls-1" d="M266.06,18.29h-5.89V30h-3.68V.49h11.88c5.4,0,9.25,3.45,9.25,8.9A8.15,8.15,0,0,1,270,18l8,12.05h-4.34Zm1.86-14.52h-7.75V15.06h7.75a5.53,5.53,0,0,0,5.89-5.67C273.81,6.07,271.42,3.77,267.92,3.77Z"/><path class="cls-1" d="M290.07,16.74l-3,3.37V30h-3.67V.49h3.67V15.77L300.17.49h4.61l-12.32,14L305.84,30h-4.56Z"/></g></g></svg>