<svg xmlns="http://www.w3.org/2000/svg" viewBox="0 0 525.7 90.8"><defs><style>.cls-1{fill:#50545b;}</style></defs><title>Asset 19</title><g id="Layer_2" data-name="Layer 2"><g id="Layer_1-2" data-name="Layer 1"><path class="cls-1" d="M.4,35.7c0-5-.1-9.1-.4-13.1H7.8l.5,8h.2a17.8,17.8,0,0,1,16-9.1c6.7,0,17.1,4,17.1,20.6V71H32.8V43.1c0-7.8-2.9-14.3-11.2-14.3a12.5,12.5,0,0,0-11.8,9,12.65,12.65,0,0,0-.6,4.1V71H.4Z"/><path class="cls-1" d="M82.7,71,82,64.9h-.3a18,18,0,0,1-14.8,7.2c-9.8,0-14.8-6.9-14.8-13.9,0-11.7,10.4-18.1,29.1-18v-1c0-4-1.1-11.2-11-11.2a24.11,24.11,0,0,0-12.6,3.6l-2-5.8a30,30,0,0,1,15.9-4.3c14.8,0,18.4,10.1,18.4,19.8V59.4A68.15,68.15,0,0,0,90.7,71ZM81.4,46.3c-9.6-.2-20.5,1.5-20.5,10.9,0,5.7,3.8,8.4,8.3,8.4a12,12,0,0,0,11.7-8.1,9.18,9.18,0,0,0,.5-2.8Z"/><path class="cls-1" d="M114.3,8.7V22.6h12.6v6.7H114.3V55.4c0,6,1.7,9.4,6.6,9.4a19.58,19.58,0,0,0,5.1-.6l.4,6.6a21.54,21.54,0,0,1-7.8,1.2c-4.1,0-7.4-1.3-9.5-3.7-2.5-2.6-3.4-6.9-3.4-12.6V29.3H98.2V22.6h7.5V11Z"/><path class="cls-1" d="M136.8,0h8.8V30.2h.2a16.33,16.33,0,0,1,6.3-6.2,18.11,18.11,0,0,1,9-2.5c6.5,0,16.9,4,16.9,20.7V71h-8.8V43.2c0-7.8-2.9-14.4-11.2-14.4a12.64,12.64,0,0,0-11.8,8.8,10.65,10.65,0,0,0-.6,4.2V71h-8.8Z"/><path class="cls-1" d="M219.1,71l-.7-6.1h-.3a18,18,0,0,1-14.8,7.2c-9.8,0-14.8-6.9-14.8-13.9,0-11.7,10.4-18.1,29.1-18v-1c0-4-1.1-11.2-11-11.2A24.11,24.11,0,0,0,194,31.6l-2-5.8a30,30,0,0,1,15.9-4.3c14.8,0,18.4,10.1,18.4,19.8V59.4a68.15,68.15,0,0,0,.8,11.6Zm-1.3-24.7c-9.6-.2-20.5,1.5-20.5,10.9,0,5.7,3.8,8.4,8.3,8.4a12,12,0,0,0,11.7-8.1,9.18,9.18,0,0,0,.5-2.8Z"/><path class="cls-1" d="M240.5,35.7c0-5-.1-9.1-.4-13.1h7.8l.5,8h.2a17.8,17.8,0,0,1,16-9.1c6.7,0,17.1,4,17.1,20.6V71h-8.8V43.1c0-7.8-2.9-14.3-11.2-14.3a12.5,12.5,0,0,0-11.8,9,12.65,12.65,0,0,0-.6,4.1V71h-8.8Z"/><path class="cls-1" d="M350.2,63.5H350c-2.6,4.8-8,8.6-15.8,8.6-11.3,0-20.5-9.8-20.5-24.5,0-18.1,11.7-26.1,21.9-26.1,7.5,0,12.5,3.7,14.9,8.4h.2l.3-7.3h8.3c-.2,4.1-.3,8.3-.3,13.3V90.8h-8.8Zm0-21.3a15,15,0,0,0-.4-3.7,12.86,12.86,0,0,0-12.6-10c-9.1,0-14.6,7.7-14.6,18.6,0,9.6,4.6,18,14.3,18,5.7,0,10.6-3.5,12.6-9.6a14.78,14.78,0,0,0,.7-4.2Z"/><path class="cls-1" d="M414,57.8c0,5,.1,9.4.4,13.2h-7.8l-.5-7.9h-.2a18.21,18.21,0,0,1-16,9c-7.61,0-16.71-4.2-16.71-21.2V22.6H382V49.4c0,9.2,2.8,15.4,10.81,15.4a12.72,12.72,0,0,0,11.6-8,12.87,12.87,0,0,0,.8-4.5V22.6H414Z"/><path class="cls-1" d="M438.39,9c.1,3-2.1,5.4-5.6,5.4a5.23,5.23,0,0,1-5.3-5.4A5.36,5.36,0,0,1,433,3.5,5.22,5.22,0,0,1,438.39,9Zm-9.8,62V22.6h8.8V71Z"/><path class="cls-1" d="M452,37.7c0-5.7-.1-10.6-.4-15.1h7.7l.3,9.5h.4c2.2-6.5,7.5-10.6,13.4-10.6a9.52,9.52,0,0,1,2.5.3v8.3a13.22,13.22,0,0,0-3-.3c-6.2,0-10.6,4.7-11.8,11.3a24.77,24.77,0,0,0-.4,4.1V71H452Z"/><path class="cls-1" d="M493.79,44.8h.2c1.2-1.7,2.9-3.8,4.3-5.5l14.2-16.7h10.6l-18.7,19.9L525.7,71H515l-16.7-23.2-4.5,5V71h-8.7V0h8.7Z"/></g></g></svg>