<svg xmlns="http://www.w3.org/2000/svg" viewBox="0 0 174.31 124.08"><defs><style>.cls-1{fill:#c44741;}</style></defs><title>Asset 25</title><g id="Layer_2" data-name="Layer 2"><g id="Layer_1-2" data-name="Layer 1"><path class="cls-1" d="M113.5,45.63h-79a4,4,0,0,1,0-8h79a4,4,0,0,1,0,8Z"/><path class="cls-1" d="M114,65.13H4a4,4,0,1,1,0-8H114a4,4,0,1,1,0,8Z"/><path class="cls-1" d="M114,85.13H35a4,4,0,0,1,0-8h79a4,4,0,0,1,0,8Z"/><path class="cls-1" d="M173.65,124.08l-29.35-5v-7.52l15.66-6L144.3,99.35V91.74l29.35-4.4V95l-16.9,2.16,16.9,7.08v3L156.75,114l16.9,2.5Z"/><path class="cls-1" d="M150.77,65.83v9.06h4.88V66.31h6.47v8.58h5.06V65.83h6.47V82.5H144.3V65.83Z"/><path class="cls-1" d="M173.65,61H144.3V53.38l17.95-14H144.3V31.72h29.35v7.62l-18,14h18Z"/><path class="cls-1" d="M144.3,18h17.38a6,6,0,0,0,4.53-1.5,5.4,5.4,0,0,0,.13-7.13c-1.54-1.76-3.69-1.72-5.32-1.72H144.3V0h16.85c3.08,0,6.3.13,9.51,3.3,2.51,2.47,3.65,5.55,3.65,9.68,0,4.62-1.58,7.92-3.52,9.73-2.77,2.55-6.51,2.86-9.64,2.86H144.3Z"/></g></g></svg>