<svg xmlns="http://www.w3.org/2000/svg" viewBox="0 0 177.54 232.43"><defs><style>.cls-1{fill:#ecc21c;}</style></defs><title>Asset 23</title><g id="Layer_2" data-name="Layer 2"><g id="Layer_1-2" data-name="Layer 1"><path class="cls-1" d="M17.47,42V62.06H1.73V1.37H26.85c5.28,0,10.74,1,15.38,5.46s5.64,9.64,5.64,14.74c0,4.82-.64,10.46-5.37,15.1S32.13,42,27.39,42Zm0-12.74h5.28c1.64,0,4.73-.18,6.65-1.91s2-4.09,2-5.55a7.36,7.36,0,0,0-1.82-5.46c-1.82-1.91-4.73-2.18-6.74-2.18H17.47Z"/><path class="cls-1" d="M80.81,1.37c4.55,0,10.37.72,14.83,5.36a20,20,0,0,1,5.19,13.65A17.52,17.52,0,0,1,96,33a17,17,0,0,1-8.37,4.19l19,24.84H87.09L72,38.77V62.06H56.24V1.37ZM72,28.58h3c2.36,0,5.73-.64,7.64-2.46a7.58,7.58,0,0,0,2-5.1,7.15,7.15,0,0,0-2.09-5.09c-1.46-1.46-4.1-2.37-7.55-2.37H72Z"/><path class="cls-1" d="M168,54.42c-6.19,5.92-14.93,9-23.93,9s-17.75-3.09-23.94-9a31.77,31.77,0,0,1,0-45.41c6.19-5.92,14.93-9,23.94-9S161.8,3.09,168,9a31.77,31.77,0,0,1,0,45.41ZM131.77,20.11A16.64,16.64,0,0,0,127,32a15.47,15.47,0,0,0,4.82,11.29,17.23,17.23,0,0,0,12.29,4.82,16.48,16.48,0,0,0,17.1-16.38,16.39,16.39,0,0,0-4.91-11.65,18.2,18.2,0,0,0-12.19-4.82A17.52,17.52,0,0,0,131.77,20.11Z"/><path class="cls-1" d="M35.58,85.87v41.77c0,5.64-.45,9.82-5.18,14.56-4,4-8.74,5.73-14.84,5.73A16,16,0,0,1,6,145.2,21.71,21.71,0,0,1,0,139l10.28-10.55a8.56,8.56,0,0,0,2.19,4.82,5.48,5.48,0,0,0,3,1.09,4.51,4.51,0,0,0,2.73-1c1.37-1.27,1.64-4.28,1.64-6.1V85.87Z"/><path class="cls-1" d="M82.81,99.24H64.06v10.11H81.81v13.37H64.06v10.47H82.81v13.38H48.32V85.87H82.81Z"/><path class="cls-1" d="M136.41,144.93c-6.28,2.27-9.74,3-13.65,3-10.56,0-18.47-4.19-23.48-9.1a31.86,31.86,0,0,1-9.19-22.11,31.84,31.84,0,0,1,32.12-31.85A37.56,37.56,0,0,1,136.41,88V106.8a16.91,16.91,0,0,0-13.74-6.65,15.37,15.37,0,0,0-10.92,4,17,17,0,0,0-5.28,12.47,16.79,16.79,0,0,0,4.91,11.83,17,17,0,0,0,11.29,4.18c2.37,0,8.19-.27,13.74-6.37Z"/><path class="cls-1" d="M28.67,183.74v47.33H12.92V183.74H0V170.37H41.59v13.37Z"/><path class="cls-1" d="M52.6,212.87c3.36,3.18,8.46,6.18,13.92,6.18,3.19,0,5.1-1,6.1-2.09a5.42,5.42,0,0,0,1.55-3.82,4.76,4.76,0,0,0-1.73-3.64c-1.55-1.37-3.92-2-7.83-3.19L60.52,205c-2.55-.82-6.28-2.18-8.74-4.91-3.1-3.37-3.46-7.65-3.46-10.74,0-7.47,2.91-12,5.55-14.65,3.1-3.1,8.19-5.74,15.56-5.74a42.54,42.54,0,0,1,18.75,4.92L81.9,186.2c-4.73-3.73-8.28-4.09-10.37-4.09a7.55,7.55,0,0,0-5.19,1.82,4.49,4.49,0,0,0-1.55,3.27,4,4,0,0,0,.82,2.73c.46.55,1.55,1.64,5.28,2.73l4.82,1.46c3.83,1.18,7.83,2.55,11,6,3.1,3.27,3.92,6.64,3.92,10.83,0,5.55-1.37,10.92-5.74,15.28-5.18,5.19-11.46,6.19-17.92,6.19a32.42,32.42,0,0,1-11.93-2,42.33,42.33,0,0,1-9.19-4.82Z"/></g></g></svg>