<svg xmlns="http://www.w3.org/2000/svg" viewBox="0 0 293.85 293.85"><defs><style>.cls-1{fill:#2a3539;}.cls-2{fill:#edb62f;}.cls-3{fill:#fff;}</style></defs><title>Asset 25</title><g id="Layer_2" data-name="Layer 2"><g id="Layer_1-2" data-name="Layer 1"><rect class="cls-1" width="293.85" height="293.85" rx="12" ry="12"/><path class="cls-2" d="M275,287.5H18.86A12.51,12.51,0,0,1,6.36,275V18.86a12.5,12.5,0,0,1,12.5-12.5H275a12.51,12.51,0,0,1,12.5,12.5V275A12.52,12.52,0,0,1,275,287.5ZM18.86,7.36a11.51,11.51,0,0,0-11.5,11.5V275a11.51,11.51,0,0,0,11.5,11.5H275A11.51,11.51,0,0,0,286.5,275V18.86A11.51,11.51,0,0,0,275,7.36Z"/><path class="cls-3" d="M25.1,159.12a7,7,0,0,1,2.41-.64,13.59,13.59,0,0,0,2.87-.67,8.86,8.86,0,0,0,.19-.91q.06-.43.06-3l0-7,.12-3.75-.06-2.9.06-1.69q.11-3.41.1-6.38,0-6.5-.16-8.31l-1.84-.37c-1.69-.11-2.81-.21-3.38-.32l-.06-1.87.13-.35a19.11,19.11,0,0,1,2.87-.25l2.91,0c1.5.13,2.31.19,2.43.19l1.66-.09,3.91-.19a75.59,75.59,0,0,1,7.72-.38q6.41,0,10.18,3.27A9.7,9.7,0,0,1,61,131a9,9,0,0,1-2,5.74,12.43,12.43,0,0,1-6.27,3.89q.38.66,1,1.53c.88,1.25,1.58,2.31,2.12,3.19l5,8.09a24.24,24.24,0,0,0,2.45,3.77,7.61,7.61,0,0,0,2.39,1.2,10.31,10.31,0,0,1,2.16,1.06,3,3,0,0,1,.18.94q0,.28,0,.72h-.84l-.63,0-1.62-.22H63.54a17.09,17.09,0,0,0-2.47-.15l-3.13,0c-.23,0-1,.08-2.18.22l-1.35.16-1.06-2.06c-.88-1.57-1.49-2.73-1.84-3.5q-1.38-3-4.72-9.66c-1-2-1.77-3.2-2.19-3.47a5.85,5.85,0,0,0-3.22-.65c-.42,0-1.12,0-2.12.06a19.05,19.05,0,0,0-.1,2.15l.16,6.94-.19,5.88a7.19,7.19,0,0,0,2.28.81,25.15,25.15,0,0,1,4.19,1.19,14.76,14.76,0,0,1-.13,2.31l-.75,0-1.28.06c-4.48-.39-7.13-.59-8-.59-.54,0-.92,0-1.15,0l-4.31.28a32,32,0,0,1-3.6.22H25.07c0-.52-.06-.86-.06-1A7.34,7.34,0,0,1,25.1,159.12ZM39.16,138.9q1.5.06,2.19.06,5.31,0,7.53-1.9A6.38,6.38,0,0,0,51.1,132a12.09,12.09,0,0,0-.55-3.7,6.46,6.46,0,0,0-1.35-2.58,7.29,7.29,0,0,0-3-1.84,14.82,14.82,0,0,0-4.39-.47,15.75,15.75,0,0,0-2.46.16l-.06.59.06,4.22-.1,2.56,0,3.41c0,1-.08,2.2-.1,3.72Z"/><path class="cls-3" d="M69.16,144.48a13.61,13.61,0,0,1,1.44-3.54,16.17,16.17,0,0,1,3.73-4,12.44,12.44,0,0,1,3.58-1.9,12.63,12.63,0,0,1,3.35-.6,19.81,19.81,0,0,1,4.75.46,9.36,9.36,0,0,1,3,1.29,14.6,14.6,0,0,1,2.81,2.47,10.22,10.22,0,0,1,1.73,2.93,11.86,11.86,0,0,1,.74,4.09l-3.47-.06q-1.44,0-6.31-.27c-1.21-.11-2.05-.16-2.5-.16l-3.38.06H76a5.86,5.86,0,0,0-.06.76,16.23,16.23,0,0,0,.41,3.49,11,11,0,0,0,1.22,3.23,8.79,8.79,0,0,0,2,2.39A8,8,0,0,0,82,156.56l1.81.59a20.08,20.08,0,0,0,3.22-.16,13.77,13.77,0,0,0,2.64-.79,15.21,15.21,0,0,0,2.76-1.64c.75.54,1.38,1,1.88,1.47a18.11,18.11,0,0,1-5.7,4.39A15.75,15.75,0,0,1,82,161.78a15.35,15.35,0,0,1-4-.44,12.46,12.46,0,0,1-3.79-1.72,11.5,11.5,0,0,1-2.9-2.88,13.2,13.2,0,0,1-1.81-3.54,12.67,12.67,0,0,1-.79-3.81A25.16,25.16,0,0,1,69.16,144.48Zm18.16-1.33a9.17,9.17,0,0,0-.69-3.36,5.22,5.22,0,0,0-2-2.49,4.78,4.78,0,0,0-6.56.94,8,8,0,0,0-1.91,5l7.13.07c.45,0,1.1,0,1.93-.1.61-.05,1-.08,1.28-.08Z"/><path class="cls-3" d="M99.32,152.31a7.39,7.39,0,0,1,1.37-.19l.66,0,.28.31a33.08,33.08,0,0,0,2.22,3.6,13.19,13.19,0,0,0,2.16,2.06,9.31,9.31,0,0,0,2.25,1,6.28,6.28,0,0,0,2.18.38,4.9,4.9,0,0,0,3.38-1.27,3.64,3.64,0,0,0,1.4-2.73,2.72,2.72,0,0,0-.53-1.71,5.3,5.3,0,0,0-2.12-1.39,33.26,33.26,0,0,0-3.92-1.12c-2.1-.52-3.36-.87-3.8-1a8.61,8.61,0,0,1-2.61-1.57,6.73,6.73,0,0,1-1.73-2.25,7.46,7.46,0,0,1-.82-3.06,9.44,9.44,0,0,1,.69-3.89,8.18,8.18,0,0,1,1.94-2.67,8.32,8.32,0,0,1,2.73-1.6,10.83,10.83,0,0,1,3.92-.71,29.8,29.8,0,0,1,5.22.4,13.62,13.62,0,0,1,3.82,1.22c.12.48.3,1.58.53,3.31s.34,2.75.34,3.07a1.34,1.34,0,0,1-.09.46,4.7,4.7,0,0,1-1.35.25q-.31,0-.9-.06c-.19-.29-.44-.73-.75-1.31a11.58,11.58,0,0,0-3.08-3.92,6.06,6.06,0,0,0-3.64-1.14,5.38,5.38,0,0,0-3.63,1.25,3.05,3.05,0,0,0-1.06,2.47,3,3,0,0,0,1.11,2.09,7.54,7.54,0,0,0,3.8,1.66,30.72,30.72,0,0,1,6,1.81,9,9,0,0,1,4,3.09,7.49,7.49,0,0,1,1.14,4.13,7.74,7.74,0,0,1-2.73,6c-1.82,1.62-4.49,2.43-8,2.43-.45,0-1.65-.11-3.59-.32a22.72,22.72,0,0,1-3.09-.62c-.3-.08-1.06-.39-2.28-.91a1.08,1.08,0,0,1-.49-.45,16.4,16.4,0,0,1-.42-2.61C99.52,154.33,99.34,152.81,99.32,152.31Z"/><path class="cls-3" d="M125.82,144.48a13.61,13.61,0,0,1,1.44-3.54,16,16,0,0,1,3.73-4,12.31,12.31,0,0,1,3.58-1.9,12.57,12.57,0,0,1,3.34-.6,19.75,19.75,0,0,1,4.75.46,9.17,9.17,0,0,1,3,1.29,14.39,14.39,0,0,1,2.82,2.47,10.7,10.7,0,0,1,1.73,2.93,11.87,11.87,0,0,1,.73,4.09l-3.46-.06q-1.44,0-6.32-.27c-1.21-.11-2-.16-2.5-.16l-3.37.06h-2.69a5.86,5.86,0,0,0-.06.76,16.19,16.19,0,0,0,.4,3.49,11.24,11.24,0,0,0,1.22,3.23,8.82,8.82,0,0,0,2,2.39,8,8,0,0,0,2.48,1.45l1.82.59a19.93,19.93,0,0,0,3.21-.16,13.77,13.77,0,0,0,2.64-.79,15.24,15.24,0,0,0,2.77-1.64c.75.54,1.38,1,1.88,1.47a18.14,18.14,0,0,1-5.71,4.39,15.72,15.72,0,0,1-6.61,1.36,15.4,15.4,0,0,1-4-.44,12.51,12.51,0,0,1-3.78-1.72,11.7,11.7,0,0,1-2.91-2.88,13.49,13.49,0,0,1-1.81-3.54,12.92,12.92,0,0,1-.78-3.81A25.16,25.16,0,0,1,125.82,144.48ZM144,143.15a9.37,9.37,0,0,0-.68-3.36,5.28,5.28,0,0,0-2-2.49,4.79,4.79,0,0,0-6.57.94,8,8,0,0,0-1.9,5l7.12.07c.46,0,1.11,0,1.94-.1.6-.05,1-.08,1.28-.08Z"/><path class="cls-3" d="M154.35,159.48a2.45,2.45,0,0,1,1.06-.52,9.46,9.46,0,0,0,3-1.24,23.53,23.53,0,0,0,.28-5.06,105.89,105.89,0,0,0-.34-10.67,1.35,1.35,0,0,0-.5-.87,9.42,9.42,0,0,0-2.12-.72.9.9,0,0,1-.75-.69l-.1-1.15A9.79,9.79,0,0,0,159.1,137a10.66,10.66,0,0,0,2.81-2.58,7.85,7.85,0,0,1,.88-1.09l2.18-.07a5.51,5.51,0,0,1,.16,1.19c0,.23,0,.51,0,.85,0,.73,0,1.33,0,1.81,0,.23,0,1.09,0,2.59a30.22,30.22,0,0,1,1.87-2.94,22.53,22.53,0,0,1,1.66-1.53,4,4,0,0,1,2.41-.78,4.09,4.09,0,0,1,2.87,1.13,3.44,3.44,0,0,1,1.22,2.59,4.18,4.18,0,0,1-.92,2.64,3,3,0,0,1-2.45,1.17,4.69,4.69,0,0,1-2.82-1.12,2.57,2.57,0,0,0-1.4-.69l-.22,0a2.31,2.31,0,0,0-1.19,1.19,6.5,6.5,0,0,0-.87,3.23l.06.85q.12,2.3.19,10.8a3.71,3.71,0,0,0,.59,1.56,3.56,3.56,0,0,0,1.14.62,10.27,10.27,0,0,0,2,.32,3.85,3.85,0,0,1,1.75.39,1.12,1.12,0,0,1,.31.87,2.94,2.94,0,0,1-.19.92h-2.94l-6-.28a39.18,39.18,0,0,0-4.09.19h-.53l-3.25.15a4.89,4.89,0,0,1-.09-.77A4.37,4.37,0,0,1,154.35,159.48Z"/><path class="cls-3" d="M177.54,135.59l.72,0,6.5.15,1.93,0,4.13-.15h.72a3.35,3.35,0,0,1,.18.89,8.12,8.12,0,0,1-.12,1.14c-.4.06-.86.13-1.38.19a5.1,5.1,0,0,0-1.9.5.5.5,0,0,0-.28.41,3,3,0,0,0,.4,1.31,21.62,21.62,0,0,1,.88,2c.19.5.53,1.25,1,2.25,1.56,3.24,2.68,5.75,3.34,7.55.4,1.06.72,1.84,1,2.34q2.19-5,4.72-12.83a14.62,14.62,0,0,0,.75-3.28,22.51,22.51,0,0,0-3.44-.28h-.37l-.5-.06a9.79,9.79,0,0,1-.06-1.05,1.94,1.94,0,0,1,.25-1.11l1.09-.1,2.72,0h1.53q1.41.12,2.94.12l2.5-.12.87,0c0,.37,0,.67,0,.89s0,.52,0,.86a20.66,20.66,0,0,0-4.4,1.4c-.15.3-.24.49-.29.6l-.12.28q-1.24,3.75-4,9.92l-3.37,8.17c-.44,1-.77,1.76-1,2.16-.36.71-.66,1.32-.91,1.84H191.1a50.51,50.51,0,0,1-2.53-5.1l-4.25-9.51q-1.56-3.78-3.56-8a2.28,2.28,0,0,0-.41-.66,9.42,9.42,0,0,1-2.91-1.05,5.35,5.35,0,0,1-.06-.84A2.32,2.32,0,0,1,177.54,135.59Z"/><path class="cls-3" d="M208.76,144.48a14.07,14.07,0,0,1,1.43-3.54,16,16,0,0,1,3.74-4,12.19,12.19,0,0,1,3.58-1.9,12.5,12.5,0,0,1,3.34-.6,19.75,19.75,0,0,1,4.75.46,9.17,9.17,0,0,1,3,1.29,14.3,14.3,0,0,1,2.81,2.47,10.48,10.48,0,0,1,1.74,2.93,12.11,12.11,0,0,1,.73,4.09l-3.47-.06q-1.44,0-6.31-.27c-1.21-.11-2-.16-2.5-.16l-3.37.06h-2.69a5.86,5.86,0,0,0-.06.76,16.19,16.19,0,0,0,.4,3.49,11.24,11.24,0,0,0,1.22,3.23,8.65,8.65,0,0,0,2,2.39,8,8,0,0,0,2.48,1.45l1.81.59a20,20,0,0,0,3.22-.16,13.77,13.77,0,0,0,2.64-.79,15.58,15.58,0,0,0,2.77-1.64c.75.54,1.37,1,1.87,1.47a18,18,0,0,1-5.7,4.39,15.72,15.72,0,0,1-6.61,1.36,15.35,15.35,0,0,1-4-.44,12.29,12.29,0,0,1-3.78-1.72,11.38,11.38,0,0,1-2.91-2.88,13.2,13.2,0,0,1-1.81-3.54,12.92,12.92,0,0,1-.78-3.81A24.41,24.41,0,0,1,208.76,144.48Zm18.15-1.33a9.17,9.17,0,0,0-.69-3.36,5.16,5.16,0,0,0-2-2.49,5,5,0,0,0-2.78-.9,5.08,5.08,0,0,0-3.78,1.84,8,8,0,0,0-1.91,5l7.13.07c.46,0,1.1,0,1.94-.1.6-.05,1-.08,1.28-.08Z"/><path class="cls-3" d="M244.32,137.09a11.43,11.43,0,0,1,3-1.53,19.19,19.19,0,0,1,4-.72H253a10.76,10.76,0,0,1,6.53,2.34l.06-.75,0-2.09.12-3.35q0-5.28-.81-6.68a1.82,1.82,0,0,0-1.64-.91,5,5,0,0,1-1.89-.41v-1.5a5.74,5.74,0,0,1,1.53-.2,21.56,21.56,0,0,0,3.66-.64l1.06-.22,3.09-.72a8.7,8.7,0,0,1,1.16-.22,3.78,3.78,0,0,1,.5.07,3.71,3.71,0,0,1,.19,1l0,.46v.57q0,.87.09,4.65v1.69l0,.91,0,1.56.09,3.25-.06,1.91q-.06,1.25-.06,3.93,0,.45,0,.78v1.16q0,.49,0,.75c0,.31,0,.76.09,1.34v1.72l0,.66c0,.6-.06,1.44-.06,2.5s0,2.06.06,2.94c0,.35,0,.67,0,1v2.34c0,.75,0,1.65.07,2.69a7.73,7.73,0,0,0,2.75.5,6.89,6.89,0,0,1,1.21.15,2.42,2.42,0,0,1,.16.69,2.46,2.46,0,0,1-.22.84A20.09,20.09,0,0,1,268,160a19.22,19.22,0,0,0-6.09,1.5,3,3,0,0,1-1.22.5,5.77,5.77,0,0,1-.78-.06q0-.57,0-.72a24.62,24.62,0,0,0-.09-2.74l-1.16.66a16.28,16.28,0,0,1-3.81,1.75,14.3,14.3,0,0,1-3.94.49,11.53,11.53,0,0,1-6.28-1.5,12,12,0,0,1-4.8-5.25,16.79,16.79,0,0,1-1.32-6.72Q238.51,141.56,244.32,137.09Zm9.62,20.65a10.13,10.13,0,0,0,1.13.07,6.54,6.54,0,0,0,2.2-.43,13.89,13.89,0,0,0,2.49-1.26c0-.69,0-1.11,0-1.28,0-6.61-.1-10.58-.28-11.94a6.49,6.49,0,0,0-2.07-4.19,6,6,0,0,0-4.09-1.47,6.93,6.93,0,0,0-2.61.5,5.17,5.17,0,0,0-2,1.44A9.67,9.67,0,0,0,247,142.3a14.45,14.45,0,0,0-.81,4.55c0,3.4.72,6,2.16,7.79A8.13,8.13,0,0,0,253.94,157.74Z"/><path class="cls-2" d="M101,203.21a60.34,60.34,0,0,1-15.83-2.1A82.11,82.11,0,0,1,56,185.83c-1.13-.89-2.28-1.89-3.4-2.85-6.14-5.27-12.48-10.73-21-6.82a10,10,0,0,0-.93,17.67c3.15,1.87,7.35,1.59,9.76-.65,1.8-1.68,2.19-6.48.69-8.43-.74-1-1.83-1-3.25-.11l-.53-.85c2.53-1.59,4-.46,4.58.35,1.81,2.36,1.37,7.75-.81,9.77-2.76,2.57-7.37,2.9-10.95.78a11,11,0,0,1,1-19.44c9.1-4.18,16,1.75,22.07,7,1.16,1,2.26,1.95,3.37,2.83a81.07,81.07,0,0,0,28.82,15.09c21.94,6,46.49-1.33,61.1-18.23l.76.66C135.92,195.75,118.57,203.21,101,203.21Z"/><path class="cls-2" d="M192.82,203.21c-17.54,0-34.89-7.46-46.3-20.64l.76-.66c14.61,16.9,39.17,24.22,61.1,18.23a81.07,81.07,0,0,0,28.82-15.09c1.11-.88,2.21-1.83,3.37-2.83,6.08-5.22,13-11.15,22.08-7a11,11,0,0,1,1,19.44c-3.58,2.12-8.19,1.79-11-.78-2.17-2-2.62-7.41-.8-9.77.62-.81,2.05-1.94,4.57-.35l-.53.85c-1.41-.89-2.51-.86-3.25.11-1.5,1.95-1.11,6.75.69,8.43,2.41,2.24,6.61,2.52,9.77.65a10,10,0,0,0-.93-17.67c-8.53-3.91-14.87,1.54-21,6.82-1.11,1-2.27,2-3.4,2.85a81.94,81.94,0,0,1-29.18,15.28A60.27,60.27,0,0,1,192.82,203.21Z"/><path class="cls-2" d="M101,208.54a59.93,59.93,0,0,1-15.83-2.1A82.11,82.11,0,0,1,56,191.16c-1.13-.89-2.28-1.88-3.4-2.85-6.13-5.27-12.48-10.73-21-6.82a10,10,0,0,0-.93,17.67c3.15,1.87,7.35,1.59,9.76-.65,1.8-1.67,2.19-6.48.69-8.43-.74-1-1.83-1-3.25-.11l-.53-.85c2.52-1.59,4-.46,4.58.35,1.81,2.36,1.37,7.75-.81,9.77-2.76,2.57-7.37,2.9-10.95.78a11,11,0,0,1,1-19.44c9.11-4.17,16,1.75,22.07,7,1.16,1,2.26,1.94,3.37,2.82a80.75,80.75,0,0,0,28.82,15.09c21.94,6,46.49-1.33,61.1-18.22l.76.65C135.93,201.08,118.57,208.54,101,208.54Z"/><path class="cls-2" d="M192.82,208.54c-17.53,0-34.89-7.45-46.3-20.64l.76-.65c14.62,16.89,39.17,24.22,61.1,18.22a80.75,80.75,0,0,0,28.82-15.09c1.11-.88,2.21-1.82,3.37-2.82,6.08-5.23,13-11.16,22.08-7a11,11,0,0,1,1,19.44c-3.58,2.12-8.19,1.79-11-.78-2.17-2-2.62-7.41-.8-9.77.62-.81,2.05-1.94,4.57-.35L256,190c-1.41-.89-2.51-.85-3.25.11-1.5,1.95-1.11,6.76.69,8.43,2.41,2.24,6.61,2.52,9.77.65a10,10,0,0,0-.93-17.67c-8.53-3.91-14.87,1.55-21,6.82-1.11,1-2.27,2-3.4,2.85a81.94,81.94,0,0,1-29.18,15.28A59.85,59.85,0,0,1,192.82,208.54Z"/><path class="cls-2" d="M101,213.87a59.91,59.91,0,0,1-15.82-2.1A81.84,81.84,0,0,1,56,196.5c-1.13-.9-2.28-1.89-3.4-2.85-6.14-5.28-12.48-10.73-21-6.83a10,10,0,0,0-.93,17.68c3.15,1.86,7.35,1.58,9.76-.66,1.8-1.67,2.19-6.47.69-8.42-.74-1-1.83-1-3.25-.12l-.53-.84c2.53-1.59,4-.47,4.58.35,1.81,2.36,1.37,7.74-.81,9.76-2.76,2.58-7.37,2.91-10.95.79a11,11,0,0,1,1-19.44c9.1-4.18,16,1.74,22.07,7,1.16,1,2.26,1.94,3.37,2.82a80.94,80.94,0,0,0,28.82,15.1c21.93,6,46.49-1.34,61.1-18.23l.76.65C135.92,206.42,118.57,213.87,101,213.87Z"/><path class="cls-2" d="M192.82,213.87c-17.53,0-34.89-7.45-46.3-20.64l.76-.65c14.62,16.89,39.17,24.22,61.1,18.23a80.94,80.94,0,0,0,28.82-15.1c1.11-.88,2.21-1.82,3.37-2.82,6.08-5.23,13-11.15,22.08-7a11,11,0,0,1,1,19.43c-3.58,2.13-8.19,1.8-11-.78-2.17-2-2.62-7.4-.8-9.76.62-.82,2.05-1.94,4.57-.35l-.53.84c-1.41-.89-2.51-.85-3.25.12-1.5,2-1.11,6.75.69,8.42,2.41,2.24,6.61,2.52,9.77.65a10,10,0,0,0-.93-17.67c-8.53-3.9-14.87,1.55-21,6.83-1.12,1-2.28,1.95-3.41,2.85a81.75,81.75,0,0,1-29.18,15.27A59.85,59.85,0,0,1,192.82,213.87Z"/></g></g></svg>