<svg xmlns="http://www.w3.org/2000/svg" viewBox="0 0 293.85 293.85"><defs><style>.cls-1{fill:#2a3539;}.cls-2{fill:#7e8196;}.cls-3{fill:#fff;stroke:#7e8196;}.cls-3,.cls-4{stroke-miterlimit:10;}.cls-4{fill:none;stroke:#fff;stroke-linecap:round;stroke-width:3px;}</style></defs><title>Asset 20</title><g id="Layer_2" data-name="Layer 2"><g id="Layer_1-2" data-name="Layer 1"><rect class="cls-1" width="293.85" height="293.85" rx="12" ry="12"/><path class="cls-2" d="M281.79,129.91H107.73C101,107.71,81.27,91.65,58,91.65c-28.85,0-52.23,24.75-52.23,55.28S29.19,202.2,58,202.2c22.49,0,41.66-15,49-36.14H288V137.15ZM21.88,159.68c-6.66,0-12-5.71-12-12.75s5.39-12.76,12-12.76,12.05,5.71,12.05,12.76S28.54,159.68,21.88,159.68Z"/><path class="cls-3" d="M180.06,175.24c2.38,2.24,6,4.36,9.82,4.36a5.62,5.62,0,0,0,4.3-1.47,3.83,3.83,0,0,0,1.1-2.7,3.34,3.34,0,0,0-1.22-2.57c-1.1-1-2.76-1.41-5.52-2.25l-2.89-.89a14.12,14.12,0,0,1-6.17-3.47c-2.18-2.38-2.44-5.39-2.44-7.58A14,14,0,0,1,181,148.34c2.18-2.19,5.78-4.05,11-4.05a30.05,30.05,0,0,1,13.22,3.47l-4.43,8.67c-3.34-2.64-5.84-2.89-7.32-2.89a5.33,5.33,0,0,0-3.66,1.28,3.17,3.17,0,0,0-1.09,2.31,2.88,2.88,0,0,0,.58,1.93c.32.38,1.09,1.15,3.72,1.92l3.41,1c2.69.84,5.52,1.8,7.77,4.24a10.12,10.12,0,0,1,2.76,7.64c0,3.91-1,7.7-4.05,10.78-3.66,3.66-8.09,4.37-12.65,4.37a23,23,0,0,1-8.41-1.41,30.28,30.28,0,0,1-6.48-3.41Z"/><path class="cls-3" d="M215.11,175.24c2.38,2.24,6,4.36,9.83,4.36a5.65,5.65,0,0,0,4.3-1.47,3.86,3.86,0,0,0,1.09-2.7,3.34,3.34,0,0,0-1.22-2.57c-1.09-1-2.76-1.41-5.52-2.25l-2.89-.89a14.12,14.12,0,0,1-6.17-3.47c-2.18-2.38-2.43-5.39-2.43-7.58,0-5.26,2.05-8.47,3.91-10.33,2.18-2.19,5.78-4.05,11-4.05a30,30,0,0,1,13.22,3.47l-4.42,8.67c-3.34-2.64-5.85-2.89-7.32-2.89a5.3,5.3,0,0,0-3.66,1.28,3.14,3.14,0,0,0-1.09,2.31,2.87,2.87,0,0,0,.57,1.93c.32.38,1.09,1.15,3.73,1.92l3.4,1c2.7.84,5.52,1.8,7.77,4.24a10.12,10.12,0,0,1,2.76,7.64c0,3.91-1,7.7-4,10.78-3.66,3.66-8.09,4.37-12.64,4.37a23,23,0,0,1-8.41-1.41,30,30,0,0,1-6.49-3.41Z"/><path class="cls-3" d="M260.05,161.24H276.1v-16h11.17v42.82H276.1V170.74H260.05v17.34H248.94V145.26h11.11Z"/><line class="cls-4" x1="120.72" y1="139.59" x2="282.72" y2="139.59"/><line class="cls-4" x1="132.05" y1="148.26" x2="275.38" y2="148.26"/></g></g></svg>